<svg class="logo" viewBox="0 0 40 105" fill="none" xmlns="http://www.w3.org/2000/svg">
<path d="M35.395 25.1537C34.4486 21.8351 31.8916 21.0537 29.6355 20.3645C29.4392 20.3044 29.2442 20.2449 29.0518 20.1843C27.6588 19.7443 27.3916 16.5489 27.1556 13.7298C27.0236 12.1508 26.8987 10.6596 26.5859 9.6756C25.9583 7.70313 24.0488 1.70106 15.3671 1.70053C11.1692 1.70053 9.83093 4.02781 9.03188 5.41819C8.72947 5.94392 8.46832 6.39821 8.2212 6.39821C8.18125 6.39821 8.13574 6.38815 8.086 6.36857C7.96984 6.32254 7.8357 6.29925 7.68674 6.29925C6.67577 6.29925 4.97476 7.37293 4.71468 10.2537C4.60064 11.519 5.44943 12.6551 5.96563 13.2197C6.53501 13.8428 7.36157 14.4738 7.83888 14.4738C8.05504 14.4738 8.15955 14.3561 8.20241 14.2857C8.33629 14.0672 8.22199 13.7878 8.12436 13.5967C7.85131 13.062 7.51318 11.6933 7.75104 11.3049C7.78014 11.2573 7.80977 11.2411 7.86824 11.2411C7.96455 11.2411 8.19395 11.2919 8.64586 11.6322C10.862 13.3007 11.0067 16.4235 10.7429 18.0057C10.654 18.5386 9.78991 19.3371 8.78926 20.2621C6.87368 22.0324 4.25007 24.4571 3.47272 27.9498C-0.475918 45.6981 2.56309 53.4771 4.78188 59.1574C5.66136 61.409 6.42124 63.3537 6.57073 65.4654C6.77552 68.3642 5.33221 70.2218 4.55698 71.2195C4.15693 71.7344 3.95612 71.9929 4.08708 72.2601C4.19953 72.4895 4.4837 72.4895 4.57709 72.4895C4.66202 72.4895 4.76256 72.4821 4.8848 72.467C5.596 72.3789 6.47574 71.7318 7.25176 71.1605C7.61689 70.892 8.09923 70.5372 8.32756 70.4485C8.31539 70.765 7.99022 71.8043 6.34769 75.0893C3.03325 81.7185 5.08351 83.6835 7.0663 85.5838C7.82591 86.3116 8.6112 87.0641 9.08295 88.0835C10.0304 90.1309 9.43828 92.904 9.04617 94.7389C8.78159 95.9779 8.6829 96.4915 8.90462 96.7653C8.98267 96.8619 9.09618 96.9151 9.22371 96.9151C9.37108 96.9151 9.53062 96.8479 9.74202 96.6971C9.78198 96.6685 9.8214 96.6404 9.8595 96.6132C9.59121 97.272 9.18481 98.4065 9.07342 99.9673C9.01548 100.777 9.24726 101.469 9.7624 102.022C11.3764 103.755 15.507 103.755 18.2404 103.755C20.2092 103.755 20.5275 102.505 20.8352 101.297C21.1392 100.104 21.4535 98.8701 23.1942 98.2322C28.5626 96.2655 29.3336 88.8585 30.1496 81.0165C30.57 76.9774 31.0045 72.8007 32.0866 69.2238C32.6885 67.2341 33.2561 65.4146 33.8051 63.6546C38.3131 49.1996 40.371 42.6022 35.395 25.1537Z" fill="white"/>
</svg>